<?xml version="1.0" encoding="utf-8"?>
<svg viewBox="0 0 500 500" xmlns="http://www.w3.org/2000/svg" xmlns:xlink="http://www.w3.org/1999/xlink">
  <defs>
    <linearGradient id="81c36db9-452d-475d-884d-b278af2ef6e6" x1="717.06" y1="814.6" x2="717.06" y2="285.55" gradientTransform="translate(-12.74 19.35) rotate(-1.34)" gradientUnits="userSpaceOnUse">
      <stop offset="0" stop-color="gray" stop-opacity="0.25"/>
      <stop offset="0.54" stop-color="gray" stop-opacity="0.12"/>
      <stop offset="1" stop-color="gray" stop-opacity="0.1"/>
    </linearGradient>
    <linearGradient id="de77dbfb-dd49-4fbc-923c-7946454dd32b" x1="366.37" y1="536.32" x2="608.5" y2="536.32" gradientUnits="userSpaceOnUse">
      <stop offset="0" stop-color="gray" stop-opacity="0.25"/>
      <stop offset="0.54" stop-color="gray" stop-opacity="0.12"/>
      <stop offset="1" stop-color="gray" stop-opacity="0.1"/>
    </linearGradient>
    <linearGradient id="6bfe4e4d-6140-4dd1-aeb6-1c24ce52378d" x1="124.23" y1="536.32" x2="366.37" y2="536.32" xlink:href="#de77dbfb-dd49-4fbc-923c-7946454dd32b"/>
    <linearGradient id="eefef033-b9dd-454d-be9c-2768628c2c1b" x1="366.37" y1="285.31" x2="734" y2="285.31" xlink:href="#de77dbfb-dd49-4fbc-923c-7946454dd32b"/>
    <linearGradient id="56c8a114-3a82-4d1f-807f-287066e4913e" x1="0" y1="285.31" x2="366.37" y2="285.31" xlink:href="#de77dbfb-dd49-4fbc-923c-7946454dd32b"/>
    <linearGradient id="d46a1a66-2ac6-4fbc-9777-fd8606b62c04" x1="276.64" y1="421.19" x2="276.64" y2="255.38" xlink:href="#de77dbfb-dd49-4fbc-923c-7946454dd32b"/>
    <linearGradient id="81b747dc-c51a-4f4d-a150-34ccfb0c2b19" x1="188.97" y1="337.56" x2="364.55" y2="337.56" xlink:href="#de77dbfb-dd49-4fbc-923c-7946454dd32b"/>
    <linearGradient id="94dacd35-ade1-481d-ab7d-e71442837947" x1="202.5" y1="296.63" x2="232.11" y2="296.63" xlink:href="#de77dbfb-dd49-4fbc-923c-7946454dd32b"/>
    <linearGradient id="5f9514a3-5a07-41ce-8d35-51c596d713f8" x1="240.99" y1="284.79" x2="358.7" y2="284.79" xlink:href="#de77dbfb-dd49-4fbc-923c-7946454dd32b"/>
    <linearGradient id="5f23502f-63c8-483a-bbd9-acad51c7384b" x1="240.99" y1="293.67" x2="358.7" y2="293.67" xlink:href="#de77dbfb-dd49-4fbc-923c-7946454dd32b"/>
    <linearGradient id="1d6905ae-9130-4997-8264-fbb8cedb035a" x1="199.54" y1="325.92" x2="358.7" y2="325.92" xlink:href="#de77dbfb-dd49-4fbc-923c-7946454dd32b"/>
    <linearGradient id="41900377-e2ec-4e09-a282-5ca05bd60f31" x1="199.54" y1="334.8" x2="358.7" y2="334.8" xlink:href="#de77dbfb-dd49-4fbc-923c-7946454dd32b"/>
    <linearGradient id="dd8a4518-18b3-4e66-a30f-5d540a356d99" x1="199.54" y1="346.64" x2="358.7" y2="346.64" xlink:href="#de77dbfb-dd49-4fbc-923c-7946454dd32b"/>
    <linearGradient id="73297694-c0f6-49f7-84f0-ecf1ccd19cc8" x1="199.54" y1="355.53" x2="291.33" y2="355.53" xlink:href="#de77dbfb-dd49-4fbc-923c-7946454dd32b"/>
    <linearGradient id="493ae8f5-00a4-414a-a514-466a18e555de" x1="199.54" y1="367.34" x2="358.7" y2="367.34" xlink:href="#de77dbfb-dd49-4fbc-923c-7946454dd32b"/>
    <linearGradient id="3b1e923e-cefa-4350-8e60-09975381dcc2" x1="199.54" y1="376.22" x2="358.7" y2="376.22" xlink:href="#de77dbfb-dd49-4fbc-923c-7946454dd32b"/>
    <linearGradient id="0a8186d7-b2d8-4c25-b395-9cdd58a3b32d" x1="199.54" y1="388.07" x2="358.7" y2="388.07" xlink:href="#de77dbfb-dd49-4fbc-923c-7946454dd32b"/>
    <linearGradient id="80621535-6eff-45be-9aff-a177b1fc6ef5" x1="199.54" y1="396.95" x2="291.33" y2="396.95" xlink:href="#de77dbfb-dd49-4fbc-923c-7946454dd32b"/>
    <linearGradient id="dadd1f9f-4435-4897-9b35-9a7b7fdf052b" x1="303.76" y1="459.51" x2="303.76" y2="293.69" xlink:href="#de77dbfb-dd49-4fbc-923c-7946454dd32b"/>
    <linearGradient id="f16d3271-277e-4f15-bb07-00d21db963c6" x1="216.09" y1="375.88" x2="391.67" y2="375.88" xlink:href="#de77dbfb-dd49-4fbc-923c-7946454dd32b"/>
    <linearGradient id="6844f77f-b831-40d5-baa2-4d635352d65d" x1="229.62" y1="334.95" x2="259.23" y2="334.95" xlink:href="#de77dbfb-dd49-4fbc-923c-7946454dd32b"/>
    <linearGradient id="de24e734-f614-4284-b96a-2aa86e10747c" x1="268.12" y1="323.11" x2="385.83" y2="323.11" xlink:href="#de77dbfb-dd49-4fbc-923c-7946454dd32b"/>
    <linearGradient id="a5efd049-cacb-4880-98c4-916efb717ead" x1="268.12" y1="331.99" x2="385.83" y2="331.99" xlink:href="#de77dbfb-dd49-4fbc-923c-7946454dd32b"/>
    <linearGradient id="7e130a40-8f7a-4850-a2d6-6e0275737139" x1="226.66" y1="364.23" x2="385.83" y2="364.23" xlink:href="#de77dbfb-dd49-4fbc-923c-7946454dd32b"/>
    <linearGradient id="2749f835-9066-4c26-94de-8091e8f0d23b" x1="226.66" y1="373.12" x2="385.83" y2="373.12" xlink:href="#de77dbfb-dd49-4fbc-923c-7946454dd32b"/>
    <linearGradient id="83d2a205-1aab-4c1f-9a0d-e371e1497593" x1="226.66" y1="384.96" x2="385.83" y2="384.96" xlink:href="#de77dbfb-dd49-4fbc-923c-7946454dd32b"/>
    <linearGradient id="eaa6c3f5-6275-43ae-b3c2-02cbd6aead80" x1="226.66" y1="393.84" x2="318.45" y2="393.84" xlink:href="#de77dbfb-dd49-4fbc-923c-7946454dd32b"/>
    <linearGradient id="e1588a1d-b1ef-45da-83e8-d054f8a4e057" x1="226.66" y1="405.66" x2="385.83" y2="405.66" xlink:href="#de77dbfb-dd49-4fbc-923c-7946454dd32b"/>
    <linearGradient id="34a60174-261b-4ce6-8479-6deff5e9df2e" x1="226.66" y1="414.54" x2="385.83" y2="414.54" xlink:href="#de77dbfb-dd49-4fbc-923c-7946454dd32b"/>
    <linearGradient id="b1d4060a-bab6-41d9-9d3f-50faf13ce905" x1="226.66" y1="426.39" x2="385.83" y2="426.39" xlink:href="#de77dbfb-dd49-4fbc-923c-7946454dd32b"/>
    <linearGradient id="001da48e-f69d-4ab6-b1e5-b6877c600ca3" x1="226.66" y1="435.27" x2="318.45" y2="435.27" xlink:href="#de77dbfb-dd49-4fbc-923c-7946454dd32b"/>
    <linearGradient id="a9c4be37-9b27-4af0-b082-7a197d7b08af" x1="396.27" y1="498.11" x2="396.27" y2="315.15" xlink:href="#de77dbfb-dd49-4fbc-923c-7946454dd32b"/>
    <linearGradient id="1be8f728-2df0-4ca7-b72e-42c383ba6409" x1="323.2" y1="406.08" x2="470.82" y2="406.08" xlink:href="#de77dbfb-dd49-4fbc-923c-7946454dd32b"/>
    <linearGradient id="2c239d92-4298-42ac-b5f5-112261fb3719" x1="630.01" y1="435.54" x2="630.01" y2="409.41" xlink:href="#de77dbfb-dd49-4fbc-923c-7946454dd32b"/>
    <linearGradient id="b25a2850-8713-435e-a7f6-77c24068e559" x1="379.34" y1="356.75" x2="414.68" y2="356.75" xlink:href="#de77dbfb-dd49-4fbc-923c-7946454dd32b"/>
    <linearGradient id="098fbc02-4549-4943-b845-c35e13d002ec" x1="389.65" y1="345.34" x2="404.37" y2="345.34" xlink:href="#de77dbfb-dd49-4fbc-923c-7946454dd32b"/>
    <linearGradient id="42d5ad37-1f95-4efe-a9d6-9d5a7598317f" x1="345.29" y1="397.51" x2="449.1" y2="397.51" xlink:href="#de77dbfb-dd49-4fbc-923c-7946454dd32b"/>
    <linearGradient id="60652df1-b02f-405a-bafe-63f1323ca3b9" x1="345.29" y1="426.59" x2="449.1" y2="426.59" xlink:href="#de77dbfb-dd49-4fbc-923c-7946454dd32b"/>
    <linearGradient id="d60c104b-effa-4916-ba15-d56398cc91aa" x1="345.29" y1="434.32" x2="449.1" y2="434.32" xlink:href="#de77dbfb-dd49-4fbc-923c-7946454dd32b"/>
    <linearGradient id="ba8a67f6-dfe8-450d-b63e-7f0d0a91ef94" x1="345.29" y1="418.86" x2="389.1" y2="418.86" xlink:href="#de77dbfb-dd49-4fbc-923c-7946454dd32b"/>
    <linearGradient id="78ba6fe6-ecca-4e26-a377-427f9aaa9d9c" x1="416.34" y1="418.86" x2="449.1" y2="418.86" xlink:href="#de77dbfb-dd49-4fbc-923c-7946454dd32b"/>
    <linearGradient id="1435728f-56d7-4408-a8a2-001738c99643" x1="381.73" y1="452.36" x2="414.5" y2="452.36" xlink:href="#de77dbfb-dd49-4fbc-923c-7946454dd32b"/>
    <linearGradient id="9b7fa617-5070-4448-ba88-12c8e3ef9a97" x1="124.23" y1="565.47" x2="366.37" y2="565.47" xlink:href="#de77dbfb-dd49-4fbc-923c-7946454dd32b"/>
    <linearGradient id="070ec920-a668-4755-a0ad-3a8615a89315" x1="366.37" y1="565.47" x2="608.5" y2="565.47" xlink:href="#de77dbfb-dd49-4fbc-923c-7946454dd32b"/>
    <linearGradient id="e36d19af-3b30-4690-9806-5999beea7781" x1="512.15" y1="631.39" x2="608.5" y2="631.39" xlink:href="#de77dbfb-dd49-4fbc-923c-7946454dd32b"/>
    <linearGradient id="a6dd6711-50c1-4fdb-98f5-9ce3faa6868a" x1="517.49" y1="407.03" x2="517.49" y2="338.42" xlink:href="#de77dbfb-dd49-4fbc-923c-7946454dd32b"/>
    <linearGradient id="c3285259-7532-4ca4-be71-649fbde17c17" x1="482.9" y1="372.87" x2="552.07" y2="372.87" xlink:href="#de77dbfb-dd49-4fbc-923c-7946454dd32b"/>
    <linearGradient id="a29959c1-757f-4596-a472-135c84a27060" x1="750.49" y1="435.86" x2="750.49" y2="415.97" xlink:href="#de77dbfb-dd49-4fbc-923c-7946454dd32b"/>
    <linearGradient id="d4e4a16f-6e37-4db9-afc4-c764cb698323" x1="504.04" y1="359.71" x2="530.93" y2="359.71" xlink:href="#de77dbfb-dd49-4fbc-923c-7946454dd32b"/>
    <linearGradient id="cff56feb-0464-47d9-bfaf-95cdd3d9140f" x1="511.89" y1="351.03" x2="523.09" y2="351.03" xlink:href="#de77dbfb-dd49-4fbc-923c-7946454dd32b"/>
    <linearGradient id="03628828-f4ed-4a34-b456-49742169550b" x1="505.58" y1="380.71" x2="530.51" y2="380.71" xlink:href="#de77dbfb-dd49-4fbc-923c-7946454dd32b"/>
    <linearGradient id="563972f9-7c15-4736-8e1d-5831e19f738d" x1="496.2" y1="386.87" x2="538.77" y2="386.87" xlink:href="#de77dbfb-dd49-4fbc-923c-7946454dd32b"/>
    <linearGradient id="ac84c3f4-4913-47be-bf79-f44b0f4db4c8" x1="358.76" y1="204.69" x2="358.76" y2="128.69" xlink:href="#de77dbfb-dd49-4fbc-923c-7946454dd32b"/>
    <linearGradient id="08e6e94c-7f78-4a4a-b5ca-eacc99124954" x1="313.57" y1="166.78" x2="403.76" y2="166.78" xlink:href="#de77dbfb-dd49-4fbc-923c-7946454dd32b"/>
    <linearGradient id="5d8bf870-f7e1-4226-8bb2-e6c031939852" x1="313.57" y1="138.3" x2="403.76" y2="138.3" xlink:href="#de77dbfb-dd49-4fbc-923c-7946454dd32b"/>
    <linearGradient id="ca57a38f-5e0b-4f9a-ad35-d20a6a3fb589" x1="320.76" y1="157.17" x2="396.57" y2="157.17" xlink:href="#de77dbfb-dd49-4fbc-923c-7946454dd32b"/>
    <linearGradient id="1fd9aa29-bfa0-42ec-baa0-a47f4919731f" x1="320.76" y1="170.73" x2="376.09" y2="170.73" xlink:href="#de77dbfb-dd49-4fbc-923c-7946454dd32b"/>
    <linearGradient id="2b0d4ee5-bed4-41f8-93bf-55bbaa1359c2" x1="320.76" y1="176.3" x2="356.69" y2="176.3" xlink:href="#de77dbfb-dd49-4fbc-923c-7946454dd32b"/>
    <linearGradient id="ffea16a4-8b84-4b92-9000-f48bb1ea4454" x1="320.76" y1="181.87" x2="368.19" y2="181.87" xlink:href="#de77dbfb-dd49-4fbc-923c-7946454dd32b"/>
    <linearGradient id="bd2a8e8b-f3e8-4ae2-849a-acfa94ff2f68" x1="320.76" y1="187.44" x2="376.09" y2="187.44" xlink:href="#de77dbfb-dd49-4fbc-923c-7946454dd32b"/>
    <linearGradient id="f06efa35-a8e5-4b8b-afbe-7609fb33c535" x1="320.76" y1="193.01" x2="339.26" y2="193.01" xlink:href="#de77dbfb-dd49-4fbc-923c-7946454dd32b"/>
    <linearGradient id="b384c48b-fa09-4d02-bdd3-cc00491ed01d" x1="505.86" y1="279.95" x2="505.86" y2="185.76" xlink:href="#de77dbfb-dd49-4fbc-923c-7946454dd32b"/>
    <linearGradient id="5e00f217-30a6-42ff-b3ae-1a90f6b4187c" x1="449.86" y1="232.96" x2="561.64" y2="232.96" xlink:href="#de77dbfb-dd49-4fbc-923c-7946454dd32b"/>
    <linearGradient id="dc2aebd1-2b83-4119-bcc5-a741f826754f" x1="449.86" y1="197.67" x2="561.64" y2="197.67" xlink:href="#de77dbfb-dd49-4fbc-923c-7946454dd32b"/>
    <linearGradient id="93231171-c5fd-4b16-9e58-5bf8089a9216" x1="458.76" y1="221.05" x2="552.73" y2="221.05" xlink:href="#de77dbfb-dd49-4fbc-923c-7946454dd32b"/>
    <linearGradient id="50b8a9d8-eeba-4f66-80ff-241f1361769d" x1="458.76" y1="237.86" x2="527.35" y2="237.86" xlink:href="#de77dbfb-dd49-4fbc-923c-7946454dd32b"/>
    <linearGradient id="1c46a2fd-722a-4782-991f-2753aa584a85" x1="458.76" y1="244.77" x2="503.3" y2="244.77" xlink:href="#de77dbfb-dd49-4fbc-923c-7946454dd32b"/>
    <linearGradient id="20746c70-8f38-4111-a8e7-6be16dcdc432" x1="458.76" y1="251.67" x2="517.55" y2="251.67" xlink:href="#de77dbfb-dd49-4fbc-923c-7946454dd32b"/>
    <linearGradient id="ff2c3201-2e6a-4c49-9262-7d1610fa9938" x1="458.76" y1="258.57" x2="527.35" y2="258.57" xlink:href="#de77dbfb-dd49-4fbc-923c-7946454dd32b"/>
    <linearGradient id="f77a8c52-f808-4319-bd14-9cea9a000094" x1="458.76" y1="265.48" x2="481.7" y2="265.48" xlink:href="#de77dbfb-dd49-4fbc-923c-7946454dd32b"/>
    <linearGradient id="fc3b52e5-7958-4225-afa3-e6f186f3a800" x1="463.66" y1="220.94" x2="490.38" y2="220.94" xlink:href="#de77dbfb-dd49-4fbc-923c-7946454dd32b"/>
    <linearGradient id="2b5a7ca0-2cf9-4df0-8cdd-e53d9708a5ec" x1="121.07" y1="472.93" x2="365.73" y2="472.93" xlink:href="#de77dbfb-dd49-4fbc-923c-7946454dd32b"/>
    <linearGradient id="90935925-bac4-44a4-bec6-4c83fa48424d" x1="365.73" y1="472.93" x2="610.4" y2="472.93" xlink:href="#de77dbfb-dd49-4fbc-923c-7946454dd32b"/>
    <linearGradient id="f90ef38d-8fba-46a7-8e54-2d901dfd8f20" x1="0" y1="448.21" x2="366.37" y2="448.21" xlink:href="#de77dbfb-dd49-4fbc-923c-7946454dd32b"/>
    <linearGradient id="7f322de3-7e3f-4ca5-a3a0-2f913675712e" x1="366.37" y1="448.21" x2="734" y2="448.21" xlink:href="#de77dbfb-dd49-4fbc-923c-7946454dd32b"/>
    <linearGradient id="7e9b6443-5111-46ce-82ab-312f92c279a9" x1="279.92" y1="417.64" x2="279.92" y2="253.24" xlink:href="#de77dbfb-dd49-4fbc-923c-7946454dd32b"/>
    <linearGradient id="0bd401ed-ef45-4e9e-bf5f-b77781a1e2b2" x1="306.82" y1="455.63" x2="306.82" y2="291.23" xlink:href="#de77dbfb-dd49-4fbc-923c-7946454dd32b"/>
    <linearGradient id="8c2d82fb-4f28-4e85-a5ca-7392731b2ba5" x1="398.54" y1="493.9" x2="398.54" y2="312.51" xlink:href="#de77dbfb-dd49-4fbc-923c-7946454dd32b"/>
    <linearGradient id="5d661687-e38a-43c0-8ba0-d38908ccc19f" x1="632.27" y1="432.45" x2="632.27" y2="406.53" xlink:href="#de77dbfb-dd49-4fbc-923c-7946454dd32b"/>
    <linearGradient id="e62c516b-7ef4-49fd-a0a5-f3f48af03dcb" x1="518.71" y1="403.6" x2="518.71" y2="335.58" gradientTransform="matrix(0.22922, 0, 0, 0.22922, 320.974751, 205.010847)" xlink:href="#de77dbfb-dd49-4fbc-923c-7946454dd32b"/>
    <linearGradient id="6e0711fe-dd5e-4be2-836c-3534ecd56ee9" x1="751.71" y1="432.76" x2="751.71" y2="413.05" xlink:href="#de77dbfb-dd49-4fbc-923c-7946454dd32b"/>
    <linearGradient id="c910eb88-40c3-4f47-be10-2fca2f669ad6" x1="450.84" y1="68.02" x2="450.84" y2="0" gradientTransform="matrix(0.22922, 0, 0, 0.22922, 320.974751, 205.010847)" xlink:href="#de77dbfb-dd49-4fbc-923c-7946454dd32b"/>
    <linearGradient id="81ab2f40-7513-4f79-907c-194f7c944fd5" x1="683.84" y1="97.18" x2="683.84" y2="77.47" xlink:href="#de77dbfb-dd49-4fbc-923c-7946454dd32b"/>
    <linearGradient id="ced5db71-211d-4559-8944-028d2e60ece5" x1="361.34" y1="202.99" x2="361.34" y2="127.64" xlink:href="#de77dbfb-dd49-4fbc-923c-7946454dd32b"/>
    <linearGradient id="4adf524d-df88-48e8-970a-1ad7028c73c0" x1="507.18" y1="277.61" x2="507.18" y2="184.22" xlink:href="#de77dbfb-dd49-4fbc-923c-7946454dd32b"/>
  </defs>
  <path d="M865,796.59c-1.21-5.16-4.51-7-11.78-6.12-7.9,1-15.79,1.93-25.45-4.87-5.12-3.6-9.1-6.78-11.73-9l.43-.11S796.9,752,798.15,737.9s-9.1-50.52-9.1-50.52-.56-23.79-6-37.6a60.66,60.66,0,0,1-3.3-11.21c-3.22-17.42-12.92-63.47-28.64-83.77l-1-40.59,0-1.56.41.41a18.49,18.49,0,0,0,3.5-5.36c4.61,2.37,14.55,7.28,19.93,8.33,7.16,1.39,16,7.43,16,7.43s20.35,23.72,35.94,13.21-29.15-27.42-29.15-27.42-15.24-8.23-21.62-10.42c-4.52-1.55-13.91-7.68-19-11.13q-.13-.83-.3-1.69c-2.94-15.22-7.24-21-5.46-30.39a34.56,34.56,0,0,1,2.21-7c6-14.19-19-33.9-19-33.9s-17-14.43-10.82-22.38c0,0,9.48-1,1.38-8.62-1.39-1.31-2.83-2.52-4.26-3.64.06-.21.12-.41.19-.62a44,44,0,0,1,7.78-14.3c.54-.67,1.12-1.33,1.73-2a30.53,30.53,0,0,0,22.67-30.06,30.06,30.06,0,0,0-8.18-19.92,8,8,0,0,0,2.6-6.82c.82-9.9-19.05-19.9-27.35-18.44-4.73.83-9,3.38-13.74,4.25-4.91.9-10-.08-15,0a36.48,36.48,0,0,0-18.89,5.52A9.62,9.62,0,0,0,668.2,301a12.52,12.52,0,0,0-1,5.14c-1.4,18.21-14.58,33.36-28.58,45.33a18.9,18.9,0,0,0-4.74,5.15c-1.42,2.68-1.39,5.85-1.41,8.87-.22,30.18-10.92,61.88-35.2,80.28.38.24.76.47,1.16.68-.37.29-.74.6-1.12.88,7.89,5.13,19.75,2.63,25-5a73.9,73.9,0,0,1-10,23.49l1-.05c-.33.54-.65,1.08-1,1.61,10.82-.23,18.79-9.66,25.2-18.26.07.83.12,1.67.15,2.5A50.39,50.39,0,0,1,630.33,478l1-.09q-.47.84-1,1.66,2.39-.2,4.78-.49c-6.38,13-16.39,36.7-16.39,36.7L615,525a42.37,42.37,0,0,1-8.63,13.31c-4.05,4.23-9.16,9.37-11.35,10.74-3.9,2.43-13.46,33.88,3.84,28.79s23.86-29.44,23.86-29.44a23.59,23.59,0,0,1,4.49-11,29.5,29.5,0,0,0,3.28-5.89,314.81,314.81,0,0,1,16.11-30.85,107.61,107.61,0,0,0,8.63-17.78,52.4,52.4,0,0,1,5.09-10,56.25,56.25,0,0,0,11-6.13,29.33,29.33,0,0,0,7.43-7.5,141.18,141.18,0,0,0,4.47,14.53c4.2,11.36,11.87,37.66.76,55.25-10.19,16.14-10.41,23.95-9.65,27.17,0,.17-.1.34-.15.52a29.21,29.21,0,0,0,2.55,21.42,27.47,27.47,0,0,1,3.13,11.91l0,1.19a26.63,26.63,0,0,1-1.08,8.14c-2.17,7.36-6.69,23.58-8.2,35.33-2,15.66-15.11,30.79-15.11,30.79s-34.75,37.5-48,81.52c0,0-7.47,18.91-12.92,22.94,0,0-10.37,6.17-12.1,18,0,.32-.09.64-.12,1l-2.25,5.52S599.4,805,603.36,804.9l2.26-4.74,20.15,15.14,30.07-.7a9.49,9.49,0,0,0,2.17-2c1.44-1.88,2.29-4.82-2.27-7.88a10.93,10.93,0,0,0-7.66-1.61c-3.87.57-11.27-.72-18.2-15.19l-3.82-7.12.49.17s-6.59-10.77,6.54-25.13,32-52.26,32-52.26,25.64-20.89,30.08-34.27c0,0,17.1-28.87,27-46,1.65,3.58,3,6.29,3,6.29s20.44,27.62,23.31,48.63S770.74,751,779,764.88s8.37,19.32,8.37,19.32-5.12,13.12-1.91,23.9l.1.34.15,6.24,23,.24-.07-3.12,29.32.87s28.31-8.47,27.37-14.69Q865.16,797.25,865,796.59Z" transform="matrix(0.526185, 0, 0, 0.526185, -253.992493, -36.062634)" fill="url(#81c36db9-452d-475d-884d-b278af2ef6e6)" style=""/>
  <path d="M737.08,363.61a46,46,0,0,0-9.56,8.9,43.36,43.36,0,0,0-7.52,14,38.63,38.63,0,0,0-2,12.74l-14.85-12.67-19,4.28A60,60,0,0,0,694.32,378a64.36,64.36,0,0,0,6-13.47,49.88,49.88,0,0,0,2.09-9.34S757.43,349.35,737.08,363.61Z" transform="matrix(0.526185, 0, 0, 0.526185, -253.992493, -36.062634)" fill="#efb4b6" style="stroke-width: 0.00888528; vector-effect: non-scaling-stroke;"/>
  <path d="M660.12,811.48a9.22,9.22,0,0,1-2.1,2l-29.09.68L609.44,799.3l-2.19,4.65c-3.83.09-22.45-10.2-22.45-10.2l2.17-5.41c0-.32.07-.64.12-1,1.67-11.66,11.7-17.7,11.7-17.7l3.79-1.62,23.11,5.59,7.21,13.62c6.71,14.2,13.86,15.47,17.61,14.91a10.45,10.45,0,0,1,7.41,1.58C662.34,806.75,661.51,809.64,660.12,811.48Z" transform="matrix(0.526185, 0, 0, 0.526185, -253.992493, -36.062634)" fill="#c17174" style="stroke-width: 0.00888528; vector-effect: non-scaling-stroke;"/>
  <path d="M860.59,797.24c.91,6.11-26.47,14.41-26.47,14.41l-28.36-.87.07,3.06-22.21-.25-.14-6.12-.1-.33c-3.1-10.58,1.84-23.45,1.84-23.45l2.21-3.88,22.05-6.64a148.35,148.35,0,0,0,14.83,11.91c9.35,6.67,17,5.73,24.62,4.78,7-.87,10.23.95,11.4,6Q860.48,796.52,860.59,797.24Z" transform="matrix(0.526185, 0, 0, 0.526185, -253.992493, -36.062634)" fill="#c17174" style="stroke-width: 0.00888528; vector-effect: non-scaling-stroke;"/>
  <path d="M728.41,614.24c-.73,1.56-3.13,5.89-6.32,11.52C712.57,642.58,696,670.9,696,670.9,691.75,684,667,704.52,667,704.52s-18.27,37.19-31,51.27-6.31,24.65-6.31,24.65l-30.89-10.76c5.27-4,12.49-22.5,12.49-22.5,12.77-43.19,46.37-80,46.37-80s12.67-14.85,14.61-30.21c1.45-11.53,5.82-27.44,7.92-34.66a26.48,26.48,0,0,0,1-8l0-1.17a27.27,27.27,0,0,0-3-11.68,29,29,0,0,1-2.48-21,24.18,24.18,0,0,1,3-7.1l7.55-2.2L713,543.38s1.65,5.81,3.88,14.12C722.05,576.89,730.45,609.9,728.41,614.24Z" transform="matrix(0.526185, 0, 0, 0.526185, -253.992493, -36.062634)" fill="#5d596a" style="stroke-width: 0.00888528; vector-effect: non-scaling-stroke;"/>
  <path d="M728.41,614.24c-.73,1.56-3.13,5.89-6.32,11.52C712.57,642.58,696,670.9,696,670.9,691.75,684,667,704.52,667,704.52s-18.27,37.19-31,51.27-6.31,24.65-6.31,24.65l-30.89-10.76c5.27-4,12.49-22.5,12.49-22.5,12.77-43.19,46.37-80,46.37-80s12.67-14.85,14.61-30.21c1.45-11.53,5.82-27.44,7.92-34.66a26.48,26.48,0,0,0,1-8l0-1.17a27.27,27.27,0,0,0-3-11.68,29,29,0,0,1-2.48-21,24.18,24.18,0,0,1,3-7.1l7.55-2.2L713,543.38s1.65,5.81,3.88,14.12C722.05,576.89,730.45,609.9,728.41,614.24Z" transform="matrix(0.526185, 0, 0, 0.526185, -253.992493, -36.062634)" opacity="0.1" style="stroke-width: 0.00888528; vector-effect: non-scaling-stroke;"/>
  <path d="M813.38,776.14l-28.16,7.55s-.13-5.36-8.1-19-26.78-64.47-29.56-85.08S725,631.93,725,631.93s-1.3-2.66-2.9-6.17c-1.48-3.25-3.2-7.22-4.38-10.5-2.46-6.83-13.41-16.53-13.41-16.53-20-11.12-24-24.43-24.23-32.76a23.54,23.54,0,0,1,1.07-8.05l5.14-6.74L696,538.42l32.87-35.23,20,4.13,1.2,51.28c15.21,19.92,24.61,65.1,27.73,82.2a60.2,60.2,0,0,0,3.2,11c5.27,13.55,5.82,36.89,5.82,36.89s10,35.76,8.82,49.57S813.38,776.14,813.38,776.14Z" transform="matrix(0.526185, 0, 0, 0.526185, -253.992493, -36.062634)" fill="#5d596a" style="stroke-width: 0.00888528; vector-effect: non-scaling-stroke;"/>
  <path d="M751.54,490.4s15.58,11.12,21.75,13.28,20.92,10.23,20.92,10.23,43.28,16.6,28.2,26.91-34.77-13-34.77-13-8.56-5.93-15.49-7.3-21.66-9.45-21.66-9.45Z" transform="matrix(0.526185, 0, 0, 0.526185, -253.992493, -36.062634)" fill="#efb4b6" style="stroke-width: 0.00888528; vector-effect: non-scaling-stroke;"/>
  <path d="M737.08,363.61a46,46,0,0,0-9.56,8.9,30,30,0,0,1-5.53.64c-8.42.2-12.78-9-18.34-14.5,1.75-5.56-1.23-3.42-1.23-3.42S757.43,349.35,737.08,363.61Z" transform="matrix(0.526185, 0, 0, 0.526185, -253.992493, -36.062634)" opacity="0.1" style="stroke-width: 0.00888528; vector-effect: non-scaling-stroke;"/>
  <circle cx="721.26" cy="341.77" r="29.86" transform="matrix(0.526042, -0.012305, 0.012305, 0.526042, -258.10199, -27.128023)" fill="#efb4b6" style="stroke-width: 0.00888529; vector-effect: non-scaling-stroke;"/>
  <path d="M718,399.29l-14.85-12.67-19,4.28A60,60,0,0,0,694.32,378l.13,0a25.56,25.56,0,0,1,18.49,3.53,75.69,75.69,0,0,1,7.06,5A38.63,38.63,0,0,0,718,399.29Z" transform="matrix(0.526185, 0, 0, 0.526185, -253.992493, -36.062634)" opacity="0.1" style="stroke-width: 0.00888528; vector-effect: non-scaling-stroke;"/>
  <path d="M748.87,507.31l.27,11.45c-2.31-2.31-13.79-13.22-10.66,2.58,3.47,17.53-16.9,30.26-16.9,30.26a73,73,0,0,1-4.74,5.89C700.68,575.4,686.36,570,680.07,566a21.75,21.75,0,0,1-3.4-2.59,5.43,5.43,0,0,1-1-2.9,24.18,24.18,0,0,1,3-7.1l7.55-2.2L696,538.42l32.87-35.23Z" transform="matrix(0.526185, 0, 0, 0.526185, -253.992493, -36.062634)" opacity="0.1" style="stroke-width: 0.00888528; vector-effect: non-scaling-stroke;"/>
  <path d="M749.5,517.63s-14.53-15.36-11.05,2.17-16.9,30.26-16.9,30.26c-23.74,32.72-44.91,11.77-44.91,11.77s-5.5-6,8.52-28.54c10.74-17.26,3.32-43.06-.75-54.21A140.5,140.5,0,0,1,680,464.38l-1-4L676.68,451a100.58,100.58,0,0,1-2.5-33.43,95.92,95.92,0,0,1,4.66-22c1.54-4.56,3.27-8.48,5.13-10.82a17.37,17.37,0,0,1,10.49-6A25.52,25.52,0,0,1,713,382.32a69.39,69.39,0,0,1,11,8.4c7.83,7.47-1.33,8.46-1.33,8.46-5.94,7.8,10.47,22,10.47,22s24.19,19.34,18.39,33.27-.33,18.39,3.16,36.69S749.5,517.63,749.5,517.63Z" transform="matrix(0.526185, 0, 0, 0.526185, -253.992493, -36.062634)" fill="#9f9eff" style="stroke-width: 0.00888528; vector-effect: non-scaling-stroke;"/>
  <path d="M719.28,298.26c-4.58.82-8.72,3.31-13.29,4.16-4.75.88-9.63-.08-14.47,0a34.9,34.9,0,0,0-18.27,5.41,9.35,9.35,0,0,0-3.4,3.22,12.43,12.43,0,0,0-1,5c-1.35,17.87-14.09,32.73-27.63,44.46a18.43,18.43,0,0,0-4.59,5c-1.38,2.63-1.34,5.74-1.36,8.71-.2,29.61-10.54,60.71-34,78.76,7.92,5.23,20,2.39,24.76-5.82a73,73,0,0,1-10.14,25.46c10.46-.22,18.17-9.48,24.37-17.91a49.89,49.89,0,0,1-7,29.92c14-1.21,28.3-4.23,39.62-12.51,5.18-3.79,9.89-9.31,9.78-15.73-.06-3.68-1.7-7.11-2.87-10.6-3.05-9.08-2.32-20.53,5.23-26.42a28.52,28.52,0,0,0,4-3.16c1.73-1.94,2.34-4.61,2.69-7.19a51.33,51.33,0,0,0-.94-18.82,13.85,13.85,0,0,1-.61-4c.17-2.83,2.3-5.2,4.72-6.66s5.18-2.26,7.75-3.47a26.58,26.58,0,0,0,14.89-23.5c0-2.87-.38-6.07,1.44-8.28,2.69-3.28,8.28-2.16,11.5-4.91,3.05-2.61,2.71-7.47,4.84-10.88,1.75-2.8,5-4.29,7.37-6.54C754.57,311,728.89,296.55,719.28,298.26Z" transform="matrix(0.526185, 0, 0, 0.526185, -253.992493, -36.062634)" opacity="0.1" style="stroke-width: 0.00888528; vector-effect: non-scaling-stroke;"/>
  <path d="M716.76,411.38v.19L697.9,437.18l-11.56,15.69s-3.15,3-7.36,7.51L676.68,451a100.58,100.58,0,0,1-2.5-33.43c4.37-8.72,9.07-14.56,13.47-18.49A17.51,17.51,0,0,1,716.76,411.38Z" transform="matrix(0.526185, 0, 0, 0.526185, -253.992493, -36.062634)" opacity="0.1" style="stroke-width: 0.00888528; vector-effect: non-scaling-stroke;"/>
  <path d="M719.24,296.73c-4.58.82-8.72,3.31-13.29,4.16-4.75.88-9.63-.08-14.47,0a34.9,34.9,0,0,0-18.27,5.41,9.35,9.35,0,0,0-3.4,3.22,12.43,12.43,0,0,0-1,5c-1.35,17.87-14.09,32.73-27.63,44.46a18.43,18.43,0,0,0-4.59,5c-1.38,2.63-1.34,5.74-1.36,8.71-.2,29.61-10.54,60.71-34,78.76,7.92,5.23,20,2.39,24.76-5.82a73,73,0,0,1-10.14,25.46c10.46-.22,18.17-9.48,24.37-17.91a49.89,49.89,0,0,1-7,29.92c14-1.21,28.3-4.23,39.62-12.51,5.18-3.79,9.89-9.31,9.78-15.73-.06-3.68-1.7-7.11-2.87-10.6-3.05-9.08-2.32-20.53,5.23-26.42a28.52,28.52,0,0,0,4-3.16c1.73-1.94,2.34-4.61,2.69-7.19a51.33,51.33,0,0,0-.94-18.82,13.85,13.85,0,0,1-.61-4c.17-2.83,2.3-5.2,4.72-6.66s5.18-2.26,7.75-3.47a26.58,26.58,0,0,0,14.89-23.5c0-2.87-.38-6.07,1.44-8.28,2.69-3.28,8.28-2.16,11.5-4.91,3.05-2.61,2.71-7.47,4.84-10.88,1.75-2.8,5-4.29,7.37-6.54C754.53,309.43,728.85,295,719.24,296.73Z" transform="matrix(0.526185, 0, 0, 0.526185, -253.992493, -36.062634)" fill="#c17174" style="stroke-width: 0.00888528; vector-effect: non-scaling-stroke;"/>
  <path d="M715.19,409.88v.19l-18.87,25.61-26.62-13.26c5.13-12.32,11-20,16.37-24.82A17.51,17.51,0,0,1,715.19,409.88Z" transform="matrix(0.526185, 0, 0, 0.526185, -253.992493, -36.062634)" fill="#9f9eff" style="stroke-width: 0.00888528; vector-effect: non-scaling-stroke;"/>
  <path d="M691.83,389.54s20.41,8.74,30.38,9.27" transform="matrix(0.526185, 0, 0, 0.526185, -253.992493, -36.062634)" opacity="0.1" style="stroke-width: 0.00888528; vector-effect: non-scaling-stroke;"/>
  <path d="M860.59,797.24c.91,6.11-26.47,14.41-26.47,14.41l-28.36-.87.07,3.06-22.21-.25-.14-6.12-.1-.33,51,1.06,25.9-12.32Q860.48,796.52,860.59,797.24Z" transform="matrix(0.526185, 0, 0, 0.526185, -253.992493, -36.062634)" opacity="0.1" style="stroke-width: 0.00888528; vector-effect: non-scaling-stroke;"/>
  <path d="M660.12,811.48a9.22,9.22,0,0,1-2.1,2l-29.09.68L609.44,799.3l-2.19,4.65c-3.83.09-22.45-10.2-22.45-10.2l2.17-5.41c0-.32.07-.64.12-1l22.69,10,19.48,14.09Z" transform="matrix(0.526185, 0, 0, 0.526185, -253.992493, -36.062634)" opacity="0.1" style="stroke-width: 0.00888528; vector-effect: non-scaling-stroke;"/>
  <path d="M680,557.56s10.94-23.23,22.26-30.39" transform="matrix(0.526185, 0, 0, 0.526185, -253.992493, -36.062634)" opacity="0.1" style="stroke-width: 0.00888528; vector-effect: non-scaling-stroke;"/>
  <path d="M723.5,453.91s6.41,11.95,25.83,7.36" transform="matrix(0.526185, 0, 0, 0.526185, -253.992493, -36.062634)" opacity="0.1" style="stroke-width: 0.00888528; vector-effect: non-scaling-stroke;"/>
  <path d="M904.26,710.22s57.88,44.28,56.25,104.48" transform="matrix(0.526185, 0, 0, 0.526185, -253.992493, -36.062634)" fill="none" stroke="#535461" stroke-miterlimit="10" style="stroke-width: 0.00888528; vector-effect: non-scaling-stroke;"/>
  <rect x="455" y="733.95" width="137" height="5" fill="#673ab6" transform="matrix(0.526185, 0, 0, 0.526185, -220.579773, 5.516465)" style="stroke-width: 0.00888528; vector-effect: non-scaling-stroke;"/>
  <rect x="639" y="733.95" width="205" height="5" fill="#673ab6" transform="matrix(0.526185, 0, 0, 0.526185, -220.579773, 5.516465)" style="stroke-width: 0.00888528; vector-effect: non-scaling-stroke;"/>
  <rect x="893" y="733.95" width="62" height="5" fill="#673ab6" transform="matrix(0.526185, 0, 0, 0.526185, -220.579773, 5.516465)" style="stroke-width: 0.00888528; vector-effect: non-scaling-stroke;"/>
  <path d="M 445.832 235.93 C 444.747 183.184 406.37 140.808 359.176 140.808 C 336.093 140.808 315.137 150.951 299.589 167.499 C 267.271 170.88 240.1 194.19 227.92 226.414 C 190.922 237.495 163.666 275.423 163.666 320.526 C 163.666 374.353 202.47 417.947 250.34 417.947 C 264.401 417.929 278.201 414.146 290.305 406.991 C 313.364 419.964 341.416 420.404 364.87 408.161 C 376.654 414.843 389.964 418.367 403.51 418.392 C 451.38 418.392 490.184 374.797 490.184 320.971 C 490.184 284.431 472.296 252.607 445.832 235.93 Z" fill="#673ab6" opacity="0.1" style="stroke-width: 0.0481799; vector-effect: non-scaling-stroke;" transform="matrix(1.474399, 0, 0, 1.474399, -232.201096, -131.847214)"/>
  <g opacity="0.7" transform="matrix(0.337962, 0, 0, 0.337962, 241.043701, 170.420578)" style="stroke-width: 0.205931; vector-effect: non-scaling-stroke;">
    <polygon points="608.5 366.44 366.37 308.13 366.37 764.5 608.5 701.12 608.5 366.44" fill="url(#de77dbfb-dd49-4fbc-923c-7946454dd32b)"/>
    <g opacity="0.1">
      <polygon points="608.5 366.44 366.37 308.13 366.37 764.5 608.5 701.12 608.5 366.44" fill="url(#de77dbfb-dd49-4fbc-923c-7946454dd32b)"/>
    </g>
    <polygon points="124.23 366.44 366.37 308.13 366.37 764.5 124.23 702.38 124.23 366.44" fill="url(#6bfe4e4d-6140-4dd1-aeb6-1c24ce52378d)"/>
    <g opacity="0.17">
      <polygon points="124.23 366.44 366.37 308.13 366.37 764.5 124.23 702.38 124.23 366.44" fill="url(#6bfe4e4d-6140-4dd1-aeb6-1c24ce52378d)"/>
    </g>
    <polygon points="366.37 308.13 491.87 204.18 734 266.3 608.5 366.44 366.37 308.13" fill="url(#eefef033-b9dd-454d-be9c-2768628c2c1b)"/>
    <polygon points="0 267.56 124.23 366.44 366.37 308.13 243.4 204.18 0 267.56" fill="url(#56c8a114-3a82-4d1f-807f-287066e4913e)"/>
    <g opacity="0.05">
      <polygon points="0 267.56 124.23 366.44 366.37 308.13 243.4 204.18 0 267.56" fill="url(#56c8a114-3a82-4d1f-807f-287066e4913e)"/>
    </g>
    <g opacity="0.5">
      <rect x="186.78" y="255.38" width="179.72" height="165.82" rx="4.5" ry="4.5" fill="url(#d46a1a66-2ac6-4fbc-9777-fd8606b62c04)"/>
    </g>
    <rect x="188.97" y="256.66" width="175.58" height="161.8" rx="4.5" ry="4.5" fill="url(#81b747dc-c51a-4f4d-a150-34ccfb0c2b19)"/>
    <rect x="202.5" y="283.31" width="29.61" height="26.65" rx="4.5" ry="4.5" fill="url(#94dacd35-ade1-481d-ab7d-e71442837947)"/>
    <rect x="240.99" y="283.31" width="117.71" height="2.96" rx="0.8" ry="0.8" fill="url(#5f9514a3-5a07-41ce-8d35-51c596d713f8)"/>
    <rect x="240.99" y="292.19" width="117.71" height="2.96" rx="0.8" ry="0.8" fill="url(#5f23502f-63c8-483a-bbd9-acad51c7384b)"/>
    <rect x="199.54" y="324.44" width="159.16" height="2.96" rx="0.8" ry="0.8" fill="url(#1d6905ae-9130-4997-8264-fbb8cedb035a)"/>
    <rect x="199.54" y="333.32" width="159.16" height="2.96" rx="0.8" ry="0.8" fill="url(#41900377-e2ec-4e09-a282-5ca05bd60f31)"/>
    <rect x="199.54" y="345.16" width="159.16" height="2.96" rx="0.8" ry="0.8" fill="url(#dd8a4518-18b3-4e66-a30f-5d540a356d99)"/>
    <rect x="199.54" y="354.05" width="91.79" height="2.96" rx="0.8" ry="0.8" fill="url(#73297694-c0f6-49f7-84f0-ecf1ccd19cc8)"/>
    <rect x="199.54" y="365.86" width="159.16" height="2.96" rx="0.8" ry="0.8" fill="url(#493ae8f5-00a4-414a-a514-466a18e555de)"/>
    <rect x="199.54" y="374.74" width="159.16" height="2.96" rx="0.8" ry="0.8" fill="url(#3b1e923e-cefa-4350-8e60-09975381dcc2)"/>
    <rect x="199.54" y="386.59" width="159.16" height="2.96" rx="0.8" ry="0.8" fill="url(#0a8186d7-b2d8-4c25-b395-9cdd58a3b32d)"/>
    <rect x="199.54" y="395.47" width="91.79" height="2.96" rx="0.8" ry="0.8" fill="url(#80621535-6eff-45be-9aff-a177b1fc6ef5)"/>
    <g opacity="0.5">
      <rect x="213.9" y="293.69" width="179.72" height="165.82" rx="4.5" ry="4.5" fill="url(#dadd1f9f-4435-4897-9b35-9a7b7fdf052b)"/>
    </g>
    <rect x="216.09" y="294.98" width="175.58" height="161.8" rx="4.5" ry="4.5" fill="url(#f16d3271-277e-4f15-bb07-00d21db963c6)"/>
    <rect x="229.62" y="321.63" width="29.61" height="26.65" rx="4.5" ry="4.5" fill="url(#6844f77f-b831-40d5-baa2-4d635352d65d)"/>
    <rect x="268.12" y="321.63" width="117.71" height="2.96" rx="0.8" ry="0.8" fill="url(#de24e734-f614-4284-b96a-2aa86e10747c)"/>
    <rect x="268.12" y="330.51" width="117.71" height="2.96" rx="0.8" ry="0.8" fill="url(#a5efd049-cacb-4880-98c4-916efb717ead)"/>
    <rect x="226.66" y="362.75" width="159.16" height="2.96" rx="0.8" ry="0.8" fill="url(#7e130a40-8f7a-4850-a2d6-6e0275737139)"/>
    <rect x="226.66" y="371.64" width="159.16" height="2.96" rx="0.8" ry="0.8" fill="url(#2749f835-9066-4c26-94de-8091e8f0d23b)"/>
    <rect x="226.66" y="383.48" width="159.16" height="2.96" rx="0.8" ry="0.8" fill="url(#83d2a205-1aab-4c1f-9a0d-e371e1497593)"/>
    <rect x="226.66" y="392.36" width="91.79" height="2.96" rx="0.8" ry="0.8" fill="url(#eaa6c3f5-6275-43ae-b3c2-02cbd6aead80)"/>
    <rect x="226.66" y="404.18" width="159.16" height="2.96" rx="0.8" ry="0.8" fill="url(#e1588a1d-b1ef-45da-83e8-d054f8a4e057)"/>
    <rect x="226.66" y="413.06" width="159.16" height="2.96" rx="0.8" ry="0.8" fill="url(#34a60174-261b-4ce6-8479-6deff5e9df2e)"/>
    <rect x="226.66" y="424.91" width="159.16" height="2.96" rx="0.8" ry="0.8" fill="url(#b1d4060a-bab6-41d9-9d3f-50faf13ce905)"/>
    <rect x="226.66" y="433.79" width="91.79" height="2.96" rx="0.8" ry="0.8" fill="url(#001da48e-f69d-4ab6-b1e5-b6877c600ca3)"/>
    <g opacity="0.5">
      <rect x="318.41" y="315.15" width="155.72" height="182.96" fill="url(#a9c4be37-9b27-4af0-b082-7a197d7b08af)"/>
    </g>
    <rect x="323.2" y="318.1" width="147.62" height="175.97" fill="url(#1be8f728-2df0-4ca7-b72e-42c383ba6409)"/>
    <g opacity="0.5">
      <path d="M638.05,413.83v-4.42H622v4.42H610.71v21.71h38.6V413.83ZM624,411H636v2.81H624Z" transform="translate(-233 -67.75)" fill="url(#2c239d92-4298-42ac-b5f5-112261fb3719)"/>
    </g>
    <rect x="379.34" y="346.81" width="35.34" height="19.88" fill="url(#b25a2850-8713-435e-a7f6-77c24068e559)"/>
    <polygon points="389.65 342.76 389.65 347.92 391.49 347.92 391.49 344.24 402.53 344.24 402.53 347.92 404.37 347.92 404.37 342.76 389.65 342.76" fill="url(#098fbc02-4549-4943-b845-c35e13d002ec)"/>
    <rect x="345.29" y="395.3" width="103.81" height="4.42" fill="url(#42d5ad37-1f95-4efe-a9d6-9d5a7598317f)"/>
    <rect x="345.29" y="424.38" width="103.81" height="4.42" fill="url(#60652df1-b02f-405a-bafe-63f1323ca3b9)"/>
    <rect x="345.29" y="432.11" width="103.81" height="4.42" fill="url(#d60c104b-effa-4916-ba15-d56398cc91aa)"/>
    <rect x="345.29" y="416.65" width="43.81" height="4.42" fill="url(#ba8a67f6-dfe8-450d-b63e-7f0d0a91ef94)"/>
    <g opacity="0.6">
      <rect x="416.34" y="416.65" width="32.76" height="4.42" fill="url(#78ba6fe6-ecca-4e26-a377-427f9aaa9d9c)"/>
    </g>
    <rect x="381.73" y="450.15" width="32.76" height="4.42" fill="url(#1435728f-56d7-4408-a8a2-001738c99643)"/>
    <polygon points="124.23 366.44 124.23 702.38 366.37 764.5 366.37 431.1 124.23 366.44" fill="url(#9b7fa617-5070-4448-ba88-12c8e3ef9a97)"/>
    <polygon points="608.5 701.12 366.37 764.5 366.37 431.1 608.5 366.44 608.5 701.12" fill="url(#070ec920-a668-4755-a0ad-3a8615a89315)"/>
    <g opacity="0.07">
      <polygon points="608.5 701.12 366.37 764.5 366.37 431.1 608.5 366.44 608.5 701.12" fill="url(#070ec920-a668-4755-a0ad-3a8615a89315)"/>
    </g>
    <g opacity="0.07">
      <polygon points="512.15 589.56 512.15 699.85 608.5 673.23 608.5 562.94 512.15 589.56" fill="url(#e36d19af-3b30-4690-9806-5999beea7781)"/>
    </g>
    <rect x="481.78" y="338.42" width="71.41" height="68.61" fill="url(#a6dd6711-50c1-4fdb-98f5-9ce3faa6868a)"/>
    <rect x="482.9" y="340.1" width="69.17" height="65.53" fill="url(#c3285259-7532-4ca4-be71-649fbde17c17)"/>
    <g opacity="0.5">
      <path d="M756.6,419.34V416H744.37v3.36H735.8v16.52h29.37V419.34ZM745.9,417.2h9.18v2.14H745.9Z" transform="translate(-233 -67.75)" fill="url(#a29959c1-757f-4596-a472-135c84a27060)"/>
    </g>
    <g opacity="0.6">
      <rect x="504.04" y="352.15" width="26.88" height="15.12" fill="url(#d4e4a16f-6e37-4db9-afc4-c764cb698323)"/>
    </g>
    <g opacity="0.6">
      <polygon points="511.88 349.06 511.88 352.99 513.29 352.99 513.29 350.19 521.69 350.19 521.69 352.99 523.09 352.99 523.09 349.06 511.88 349.06" fill="url(#cff56feb-0464-47d9-bfaf-95cdd3d9140f)"/>
    </g>
    <g opacity="0.6">
      <rect x="505.58" y="379.03" width="24.92" height="3.36" fill="url(#03628828-f4ed-4a34-b456-49742169550b)"/>
    </g>
    <rect x="496.2" y="385.19" width="42.57" height="3.36" fill="url(#563972f9-7c15-4736-8e1d-5831e19f738d)"/>
    <g opacity="0.5">
      <rect x="312.49" y="128.69" width="92.52" height="76" fill="url(#ac84c3f4-4913-47be-bf79-f44b0f4db4c8)"/>
    </g>
    <rect x="313.57" y="130.13" width="90.19" height="73.3" fill="url(#08e6e94c-7f78-4a4a-b5ca-eacc99124954)"/>
    <rect x="313.57" y="130.13" width="90.19" height="16.35" fill="url(#5d8bf870-f7e1-4226-8bb2-e6c031939852)"/>
    <g opacity="0.1">
      <rect x="313.57" y="130.13" width="90.19" height="16.35" fill="url(#5d8bf870-f7e1-4226-8bb2-e6c031939852)"/>
    </g>
    <rect x="320.76" y="152.41" width="75.82" height="9.52" fill="url(#ca57a38f-5e0b-4f9a-ad35-d20a6a3fb589)"/>
    <rect x="320.76" y="169.12" width="55.34" height="3.23" fill="url(#1fd9aa29-bfa0-42ec-baa0-a47f4919731f)"/>
    <rect x="320.76" y="174.69" width="35.93" height="3.23" fill="url(#2b0d4ee5-bed4-41f8-93bf-55bbaa1359c2)"/>
    <rect x="320.76" y="180.26" width="47.43" height="3.23" fill="url(#ffea16a4-8b84-4b92-9000-f48bb1ea4454)"/>
    <rect x="320.76" y="185.82" width="55.34" height="3.23" fill="url(#bd2a8e8b-f3e8-4ae2-849a-acfa94ff2f68)"/>
    <rect x="320.76" y="191.39" width="18.5" height="3.23" fill="url(#f06efa35-a8e5-4b8b-afbe-7609fb33c535)"/>
    <g opacity="0.5">
      <rect x="448.52" y="185.76" width="114.68" height="94.19" fill="url(#b384c48b-fa09-4d02-bdd3-cc00491ed01d)"/>
    </g>
    <rect x="449.86" y="187.54" width="111.79" height="90.85" fill="url(#5e00f217-30a6-42ff-b3ae-1a90f6b4187c)"/>
    <rect x="449.86" y="187.54" width="111.79" height="20.26" fill="url(#dc2aebd1-2b83-4119-bcc5-a741f826754f)"/>
    <rect x="458.76" y="215.15" width="93.97" height="11.8" fill="url(#93231171-c5fd-4b16-9e58-5bf8089a9216)"/>
    <rect x="458.76" y="235.86" width="68.59" height="4.01" fill="url(#50b8a9d8-eeba-4f66-80ff-241f1361769d)"/>
    <rect x="458.76" y="242.76" width="44.54" height="4.01" fill="url(#1c46a2fd-722a-4782-991f-2753aa584a85)"/>
    <rect x="458.76" y="249.67" width="58.79" height="4.01" fill="url(#20746c70-8f38-4111-a8e7-6be16dcdc432)"/>
    <rect x="458.76" y="256.57" width="68.59" height="4.01" fill="url(#ff2c3201-2e6a-4c49-9262-7d1610fa9938)"/>
    <rect x="458.76" y="263.47" width="22.94" height="4.01" fill="url(#f77a8c52-f808-4319-bd14-9cea9a000094)"/>
    <rect x="463.66" y="219.16" width="26.72" height="3.56" fill="url(#fc3b52e5-7958-4225-afa3-e6f186f3a800)"/>
    <g opacity="0.1">
      <polygon points="121.07 540.75 256.71 574.98 365.73 486.24 365.73 431.73 123.6 370.88 121.07 540.75" fill="url(#2b5a7ca0-2cf9-4df0-8cdd-e53d9708a5ec)"/>
    </g>
    <g opacity="0.1">
      <polygon points="610.4 540.75 474.75 574.98 365.73 486.24 365.73 431.73 607.86 370.88 610.4 540.75" fill="url(#90935925-bac4-44a4-bec6-4c83fa48424d)"/>
    </g>
    <polygon points="124.23 366.44 0 469.13 242.13 529.98 366.37 431.1 124.23 366.44" fill="url(#f90ef38d-8fba-46a7-8e54-2d901dfd8f20)"/>
    <polygon points="608.5 366.44 734 469.13 493.14 529.98 366.37 431.1 608.5 366.44" fill="url(#7f322de3-7e3f-4ca5-a3a0-2f913675712e)"/>
    <g opacity="0.07">
      <polygon points="608.5 366.44 734 469.13 493.14 529.98 366.37 431.1 608.5 366.44" fill="url(#7f322de3-7e3f-4ca5-a3a0-2f913675712e)"/>
    </g>
  </g>
  <polygon points="460.555 288.3 405.529 275.047 405.529 378.762 460.555 364.358 460.555 288.3" fill="#535461" style="stroke-width: 0.898401; vector-effect: non-scaling-stroke;" transform="matrix(1.474399, 0, 0, 1.474399, -232.201096, -131.847214)"/>
  <polygon points="460.555 288.3 405.529 275.047 405.529 378.762 460.555 364.358 460.555 288.3" opacity="0.1" style="stroke-width: 0.898401; vector-effect: non-scaling-stroke;" transform="matrix(1.474399, 0, 0, 1.474399, -232.201096, -131.847214)"/>
  <polygon points="350.506 288.3 405.529 275.047 405.529 378.762 350.506 364.644 350.506 288.3" fill="#535461" style="stroke-width: 0.898401; vector-effect: non-scaling-stroke;" transform="matrix(1.474399, 0, 0, 1.474399, -232.201096, -131.847214)"/>
  <polygon points="350.506 287.842 405.529 274.588 405.529 378.762 350.506 364.644 350.506 287.842" opacity="0.17" style="stroke-width: 0.898401; vector-effect: non-scaling-stroke;" transform="matrix(1.474399, 0, 0, 1.474399, -232.201096, -131.847214)"/>
  <polygon points="405.071 275.505 434.051 251.423 489.077 265.541 460.098 288.759 405.071 275.505" fill="#535461" style="stroke-width: 0.898401; vector-effect: non-scaling-stroke;" transform="matrix(1.474399, 0, 0, 1.474399, -232.201096, -131.847214)"/>
  <polygon points="322.731 266.286 350.964 288.759 405.988 275.505 378.044 251.882 322.731 266.286" fill="#535461" style="stroke-width: 0.898401; vector-effect: non-scaling-stroke;" transform="matrix(1.474399, 0, 0, 1.474399, -232.201096, -131.847214)"/>
  <polygon points="322.273 265.827 351.193 288.759 406.217 275.505 377.585 251.423 322.273 265.827" opacity="0.05" style="stroke-width: 0.898401; vector-effect: non-scaling-stroke;" transform="matrix(1.474399, 0, 0, 1.474399, -232.201096, -131.847214)"/>
  <g opacity="0.5" transform="matrix(0.337962, 0, 0, 0.337962, 241.043701, 170.420578)" style="stroke-width: 0.205931; vector-effect: non-scaling-stroke;">
    <rect x="190.83" y="253.24" width="178.18" height="164.4" rx="4.5" ry="4.5" fill="url(#7e9b6443-5111-46ce-82ab-312f92c279a9)"/>
  </g>
  <rect x="365.217" y="263.352" width="39.9" height="36.769" rx="4.5" ry="4.5" fill="#f5f5f5" style="stroke-width: 0.898401; vector-effect: non-scaling-stroke;" transform="matrix(1.474399, 0, 0, 1.474399, -232.201096, -131.847214)"/>
  <path d="M 201.238 270.656 C 201.238 270.656 267.471 215.243 290.026 181.853 C 312.581 148.463 369.507 154.145 369.507 154.145" fill="none" stroke="#5d596a" stroke-miterlimit="10" stroke-width="3" opacity="0.5" style="stroke-width: 2.6952; vector-effect: non-scaling-stroke;" transform="matrix(-1.474399, 0, 0, -1.474399, 614.677307, 491.002686)"/>
  <path d="M715.19,409.88v.19l-18.87,25.61-11.56,15.69S663,471.8,657.29,488a106.16,106.16,0,0,1-8.34,17.44,310.22,310.22,0,0,0-15.57,30.26,29,29,0,0,1-3.17,5.77,23.34,23.34,0,0,0-4.34,10.82s-6.33,23.89-23.06,28.88-7.5-25.86-3.73-28.25c2.12-1.34,7.06-6.38,11-10.53a41.6,41.6,0,0,0,8.34-13.06l3.65-9.11s17.4-41.76,20.41-44.13a10.2,10.2,0,0,0,2.2-2.66c2.41-3.93,4.86-7.83,7.38-11.69,3.31-5.05,8.55-15.15,16.06-35.27.53-1.41,1.06-2.77,1.61-4.07,5.13-12.32,11-20,16.37-24.82A17.51,17.51,0,0,1,715.19,409.88Z" transform="matrix(0.526185, 0, 0, 0.526185, -253.992493, -36.062634)" fill="#efb4b6" style="stroke-width: 0.00888528; vector-effect: non-scaling-stroke;"/>
  <path d="M 346.828 148.765 L 346.318 147.031 L 346.318 96.66 L 346.828 96.15 L 370.197 109.965 Z" fill="#343434" style="stroke-width: 0.024897; vector-effect: non-scaling-stroke;" transform="matrix(-1.474399, 0, 0, -1.474399, 829.600342, 226.319122)"/>
  <path d="M 393.062 148.747 L 369.686 109.965 L 393.062 96.15 L 393.062 148.747 Z" fill="#8c8c8c" style="stroke-width: 0.024897; vector-effect: non-scaling-stroke;" transform="matrix(-1.474399, 0, 0, -1.474399, 897.766235, 226.292572)"/>
  <path d="M 346.593 158.479 L 346.303 158.123 L 346.303 140.2 L 346.593 139.361 L 369.975 172.291 Z" fill="#3c3c3b" style="stroke-width: 0.024897; vector-effect: non-scaling-stroke;" transform="matrix(-1.474399, 0, 0, -1.474399, 829.250977, 324.716064)"/>
  <path d="M 393.062 139.365 L 393.062 158.487 L 369.686 172.294 Z" fill="#8c8c8c" style="stroke-width: 0.024897; vector-effect: non-scaling-stroke;" transform="matrix(-1.474399, 0, 0, -1.474399, 897.766235, 324.72641)"/>
  <path d="M 346.318 124.312 L 369.686 138.123 L 346.318 148.747 Z" fill="#141414" style="stroke-width: 0.024897; vector-effect: non-scaling-stroke;" transform="matrix(-1.474399, 0, 0, -1.474399, 828.847046, 267.814575)"/>
  <path d="M 369.686 138.127 L 393.062 124.312 L 393.062 148.747 Z" fill="#393939" style="stroke-width: 0.024897; vector-effect: non-scaling-stroke;" transform="matrix(-1.474399, 0, 0, -1.474399, 897.766235, 267.814575)"/>
  <rect x="368.291" y="269.408" width="6.73" height="6.056" rx="4.5" ry="4.5" fill="#673ab6" style="stroke-width: 0.898401; vector-effect: non-scaling-stroke;" transform="matrix(1.474399, 0, 0, 1.474399, -232.201096, -131.847214)"/>
  <rect x="377.04" y="269.408" width="26.75" height="0.674" rx="0.8" ry="0.8" fill="#e0e0e0" style="stroke-width: 0.898401; vector-effect: non-scaling-stroke;" transform="matrix(1.474399, 0, 0, 1.474399, -232.201096, -131.847214)"/>
  <rect x="377.04" y="271.425" width="26.75" height="0.674" rx="0.8" ry="0.8" fill="#e0e0e0" style="stroke-width: 0.898401; vector-effect: non-scaling-stroke;" transform="matrix(1.474399, 0, 0, 1.474399, -232.201096, -131.847214)"/>
  <rect x="367.619" y="278.753" width="36.171" height="0.674" rx="0.8" ry="0.8" fill="#e0e0e0" style="stroke-width: 0.898401; vector-effect: non-scaling-stroke;" transform="matrix(1.474399, 0, 0, 1.474399, -232.201096, -131.847214)"/>
  <rect x="367.619" y="280.773" width="36.171" height="0.674" rx="0.8" ry="0.8" fill="#e0e0e0" style="stroke-width: 0.898401; vector-effect: non-scaling-stroke;" transform="matrix(1.474399, 0, 0, 1.474399, -232.201096, -131.847214)"/>
  <rect x="367.619" y="283.464" width="36.171" height="0.674" rx="0.8" ry="0.8" fill="#e0e0e0" style="stroke-width: 0.898401; vector-effect: non-scaling-stroke;" transform="matrix(1.474399, 0, 0, 1.474399, -232.201096, -131.847214)"/>
  <rect x="367.619" y="285.483" width="20.861" height="0.674" rx="0.8" ry="0.8" fill="#e0e0e0" style="stroke-width: 0.898401; vector-effect: non-scaling-stroke;" transform="matrix(1.474399, 0, 0, 1.474399, -232.201096, -131.847214)"/>
  <rect x="367.619" y="288.167" width="36.171" height="0.674" rx="0.8" ry="0.8" fill="#e0e0e0" style="stroke-width: 0.898401; vector-effect: non-scaling-stroke;" transform="matrix(1.474399, 0, 0, 1.474399, -232.201096, -131.847214)"/>
  <rect x="367.619" y="290.187" width="36.171" height="0.674" rx="0.8" ry="0.8" fill="#e0e0e0" style="stroke-width: 0.898401; vector-effect: non-scaling-stroke;" transform="matrix(1.474399, 0, 0, 1.474399, -232.201096, -131.847214)"/>
  <rect x="367.619" y="292.878" width="36.171" height="0.674" rx="0.8" ry="0.8" fill="#e0e0e0" style="stroke-width: 0.898401; vector-effect: non-scaling-stroke;" transform="matrix(1.474399, 0, 0, 1.474399, -232.201096, -131.847214)"/>
  <rect x="367.619" y="294.897" width="20.861" height="0.674" rx="0.8" ry="0.8" fill="#e0e0e0" style="stroke-width: 0.898401; vector-effect: non-scaling-stroke;" transform="matrix(1.474399, 0, 0, 1.474399, -232.201096, -131.847214)"/>
  <g opacity="0.5" transform="matrix(0.337962, 0, 0, 0.337962, 241.043701, 170.420578)" style="stroke-width: 0.205931; vector-effect: non-scaling-stroke;">
    <rect x="217.72" y="291.23" width="178.18" height="164.4" rx="4.5" ry="4.5" fill="url(#0bd401ed-ef45-4e9e-bf5f-b77781a1e2b2)"/>
  </g>
  <rect x="371.381" y="272.06" width="39.9" height="36.769" rx="4.5" ry="4.5" fill="#fff" style="stroke-width: 0.898401; vector-effect: non-scaling-stroke;" transform="matrix(1.474399, 0, 0, 1.474399, -232.201096, -131.847214)"/>
  <rect x="374.454" y="278.116" width="6.73" height="6.056" rx="4.5" ry="4.5" fill="#673ab6" style="stroke-width: 0.898401; vector-effect: non-scaling-stroke;" transform="matrix(1.474399, 0, 0, 1.474399, -232.201096, -131.847214)"/>
  <rect x="383.204" y="278.116" width="26.75" height="0.674" rx="0.8" ry="0.8" fill="#e0e0e0" style="stroke-width: 0.898401; vector-effect: non-scaling-stroke;" transform="matrix(1.474399, 0, 0, 1.474399, -232.201096, -131.847214)"/>
  <rect x="383.204" y="280.133" width="26.75" height="0.674" rx="0.8" ry="0.8" fill="#e0e0e0" style="stroke-width: 0.898401; vector-effect: non-scaling-stroke;" transform="matrix(1.474399, 0, 0, 1.474399, -232.201096, -131.847214)"/>
  <rect x="373.783" y="287.461" width="36.171" height="0.674" rx="0.8" ry="0.8" fill="#e0e0e0" style="stroke-width: 0.898401; vector-effect: non-scaling-stroke;" transform="matrix(1.474399, 0, 0, 1.474399, -232.201096, -131.847214)"/>
  <rect x="373.783" y="289.481" width="36.171" height="0.674" rx="0.8" ry="0.8" fill="#e0e0e0" style="stroke-width: 0.898401; vector-effect: non-scaling-stroke;" transform="matrix(1.474399, 0, 0, 1.474399, -232.201096, -131.847214)"/>
  <rect x="373.783" y="292.172" width="36.171" height="0.674" rx="0.8" ry="0.8" fill="#e0e0e0" style="stroke-width: 0.898401; vector-effect: non-scaling-stroke;" transform="matrix(1.474399, 0, 0, 1.474399, -232.201096, -131.847214)"/>
  <rect x="373.783" y="294.191" width="20.861" height="0.674" rx="0.8" ry="0.8" fill="#e0e0e0" style="stroke-width: 0.898401; vector-effect: non-scaling-stroke;" transform="matrix(1.474399, 0, 0, 1.474399, -232.201096, -131.847214)"/>
  <rect x="373.783" y="296.875" width="36.171" height="0.674" rx="0.8" ry="0.8" fill="#e0e0e0" style="stroke-width: 0.898401; vector-effect: non-scaling-stroke;" transform="matrix(1.474399, 0, 0, 1.474399, -232.201096, -131.847214)"/>
  <rect x="373.783" y="298.895" width="36.171" height="0.674" rx="0.8" ry="0.8" fill="#e0e0e0" style="stroke-width: 0.898401; vector-effect: non-scaling-stroke;" transform="matrix(1.474399, 0, 0, 1.474399, -232.201096, -131.847214)"/>
  <rect x="373.783" y="301.586" width="36.171" height="0.674" rx="0.8" ry="0.8" fill="#e0e0e0" style="stroke-width: 0.898401; vector-effect: non-scaling-stroke;" transform="matrix(1.474399, 0, 0, 1.474399, -232.201096, -131.847214)"/>
  <rect x="373.783" y="303.605" width="20.861" height="0.674" rx="0.8" ry="0.8" fill="#e0e0e0" style="stroke-width: 0.898401; vector-effect: non-scaling-stroke;" transform="matrix(1.474399, 0, 0, 1.474399, -232.201096, -131.847214)"/>
  <g opacity="0.5" transform="matrix(0.337962, 0, 0, 0.337962, 241.043701, 170.420578)" style="stroke-width: 0.205931; vector-effect: non-scaling-stroke;">
    <rect x="321.34" y="312.51" width="154.39" height="181.39" fill="url(#8c2d82fb-4f28-4e85-a5ca-7392731b2ba5)"/>
  </g>
  <rect x="395.721" y="277.314" width="33.549" height="39.99" fill="#fff" style="stroke-width: 0.898401; vector-effect: non-scaling-stroke;" transform="matrix(1.474399, 0, 0, 1.474399, -232.201096, -131.847214)"/>
  <g opacity="0.5" transform="matrix(0.337962, 0, 0, 0.337962, 241.043701, 170.420578)" style="stroke-width: 0.205931; vector-effect: non-scaling-stroke;">
    <path d="M640.24,410.92v-4.39H624.29v4.39H613.13v21.53H651.4V410.92Zm-14-2.79h12v2.79h-12Z" transform="translate(-233 -67.75)" fill="url(#5d661687-e38a-43c0-8ba0-d38908ccc19f)"/>
  </g>
  <rect x="408.48" y="283.84" width="8.032" height="4.518" fill="#673ab6" style="stroke-width: 0.898401; vector-effect: non-scaling-stroke;" transform="matrix(1.474399, 0, 0, 1.474399, -232.201096, -131.847214)"/>
  <polygon points="410.822 282.918 410.822 284.089 411.24 284.089 411.24 283.253 413.749 283.253 413.749 284.089 414.169 284.089 414.169 282.918 410.822 282.918" fill="#673ab6" style="stroke-width: 0.898401; vector-effect: non-scaling-stroke;" transform="matrix(1.474399, 0, 0, 1.474399, -232.201096, -131.847214)"/>
  <rect x="400.74" y="294.858" width="23.591" height="1.004" fill="#e0e0e0" style="stroke-width: 0.898401; vector-effect: non-scaling-stroke;" transform="matrix(1.474399, 0, 0, 1.474399, -232.201096, -131.847214)"/>
  <rect x="400.74" y="301.467" width="23.591" height="1.004" fill="#e0e0e0" style="stroke-width: 0.898401; vector-effect: non-scaling-stroke;" transform="matrix(1.474399, 0, 0, 1.474399, -232.201096, -131.847214)"/>
  <rect x="400.74" y="303.225" width="23.591" height="1.004" fill="#e0e0e0" style="stroke-width: 0.898401; vector-effect: non-scaling-stroke;" transform="matrix(1.474399, 0, 0, 1.474399, -232.201096, -131.847214)"/>
  <rect x="400.74" y="299.711" width="9.955" height="1.004" fill="#e0e0e0" style="stroke-width: 0.898401; vector-effect: non-scaling-stroke;" transform="matrix(1.474399, 0, 0, 1.474399, -232.201096, -131.847214)"/>
  <rect x="416.887" y="299.711" width="7.445" height="1.004" fill="#3ad29f" opacity="0.6" style="stroke-width: 0.898401; vector-effect: non-scaling-stroke;" transform="matrix(1.474399, 0, 0, 1.474399, -232.201096, -131.847214)"/>
  <rect x="409.023" y="307.323" width="7.445" height="1.004" fill="#673ab6" style="stroke-width: 0.898401; vector-effect: non-scaling-stroke;" transform="matrix(1.474399, 0, 0, 1.474399, -232.201096, -131.847214)"/>
  <polygon points="350.506 288.3 350.506 364.644 405.529 378.762 406.271 302.993 350.506 288.3" fill="#535461" style="stroke-width: 0.898401; vector-effect: non-scaling-stroke;" transform="matrix(1.474399, 0, 0, 1.474399, -232.201096, -131.847214)"/>
  <polygon points="460.555 364.358 405.529 378.762 405.529 302.993 460.555 288.3 460.555 364.358" fill="#535461" style="stroke-width: 0.898401; vector-effect: non-scaling-stroke;" transform="matrix(1.474399, 0, 0, 1.474399, -232.201096, -131.847214)"/>
  <polygon points="460.555 364.358 405.529 378.762 405.529 302.993 460.555 288.3 460.555 364.358" opacity="0.07" style="stroke-width: 0.898401; vector-effect: non-scaling-stroke;" transform="matrix(1.474399, 0, 0, 1.474399, -232.201096, -131.847214)"/>
  <polygon points="438.661 339.006 438.661 364.069 460.555 358.02 460.555 332.954 438.661 339.006" opacity="0.07" style="stroke-width: 0.898401; vector-effect: non-scaling-stroke;" transform="matrix(1.474399, 0, 0, 1.474399, -232.201096, -131.847214)"/>
  <rect x="431.758" y="281.932" width="16.229" height="15.592" fill="url(#e62c516b-7ef4-49fd-a0a5-f3f48af03dcb)" style="stroke-width: 0.898401; vector-effect: non-scaling-stroke;" transform="matrix(1.474399, 0, 0, 1.474399, -232.201096, -131.847214)"/>
  <rect x="432.014" y="282.313" width="15.72" height="14.892" fill="#f5f5f5" style="stroke-width: 0.898401; vector-effect: non-scaling-stroke;" transform="matrix(1.474399, 0, 0, 1.474399, -232.201096, -131.847214)"/>
  <g opacity="0.5" transform="matrix(0.337962, 0, 0, 0.337962, 241.043701, 170.420578)" style="stroke-width: 0.205931; vector-effect: non-scaling-stroke;">
    <path d="M757.78,416.38V413H745.65v3.34h-8.49v16.38h29.11V416.38Zm-10.61-2.12h9.1v2.12h-9.1Z" transform="translate(-233 -67.75)" fill="url(#6e0711fe-dd5e-4be2-836c-3534ecd56ee9)"/>
  </g>
  <rect x="436.818" y="285.05" width="6.109" height="3.436" fill="#673ab6" opacity="0.6" style="stroke-width: 0.898401; vector-effect: non-scaling-stroke;" transform="matrix(1.474399, 0, 0, 1.474399, -232.201096, -131.847214)"/>
  <polygon points="438.602 284.351 438.602 285.242 438.92 285.242 438.92 284.605 440.83 284.605 440.83 285.242 441.146 285.242 441.146 284.351 438.602 284.351" fill="#673ab6" opacity="0.6" style="stroke-width: 0.898401; vector-effect: non-scaling-stroke;" transform="matrix(1.474399, 0, 0, 1.474399, -232.201096, -131.847214)"/>
  <g opacity="0.6" transform="matrix(0.337962, 0, 0, 0.337962, 241.043701, 170.420578)" style="stroke-width: 0.205931; vector-effect: non-scaling-stroke;">
    <rect x="506.91" y="375.84" width="24.71" height="3.33" fill="#673ab6"/>
  </g>
  <rect x="435.037" y="292.561" width="9.673" height="0.763" fill="#bdbdbd" style="stroke-width: 0.898401; vector-effect: non-scaling-stroke;" transform="matrix(1.474399, 0, 0, 1.474399, -232.201096, -131.847214)"/>
  <rect x="416.202" width="16.229" height="15.592" fill="url(#c910eb88-40c3-4f47-be10-2fca2f669ad6)" style="stroke-width: 0.898401; vector-effect: non-scaling-stroke;" y="205.011" transform="matrix(1.474399, 0, 0, 1.474399, -232.201096, -131.847214)"/>
  <rect x="416.456" y="205.394" width="15.72" height="14.892" fill="#f5f5f5" style="stroke-width: 0.898401; vector-effect: non-scaling-stroke;" transform="matrix(1.474399, 0, 0, 1.474399, -232.201096, -131.847214)"/>
  <g opacity="0.5" transform="matrix(0.337962, 0, 0, 0.337962, 241.043701, 170.420578)" style="stroke-width: 0.205931; vector-effect: non-scaling-stroke;">
    <path d="M689.91,80.8V77.47H677.78V80.8h-8.49V97.18H698.4V80.8Zm-10.61-2.12h9.1V80.8h-9.1Z" transform="translate(-233 -67.75)" fill="url(#81ab2f40-7513-4f79-907c-194f7c944fd5)"/>
  </g>
  <rect x="421.261" y="208.128" width="6.109" height="3.436" fill="#673ab6" opacity="0.6" style="stroke-width: 0.898401; vector-effect: non-scaling-stroke;" transform="matrix(1.474399, 0, 0, 1.474399, -232.201096, -131.847214)"/>
  <polygon points="423.044 207.429 423.044 208.321 423.363 208.321 423.363 207.684 425.271 207.684 425.271 208.321 425.589 208.321 425.589 207.429 423.044 207.429" fill="#673ab6" opacity="0.6" style="stroke-width: 0.898401; vector-effect: non-scaling-stroke;" transform="matrix(1.474399, 0, 0, 1.474399, -232.201096, -131.847214)"/>
  <g opacity="0.6" transform="matrix(0.337962, 0, 0, 0.337962, 241.043701, 170.420578)" style="stroke-width: 0.205931; vector-effect: non-scaling-stroke;">
    <rect x="439.04" y="40.26" width="24.71" height="3.33" fill="#673ab6"/>
  </g>
  <rect x="419.48" y="215.64" width="9.673" height="0.763" fill="#bdbdbd" style="stroke-width: 0.898401; vector-effect: non-scaling-stroke;" transform="matrix(1.474399, 0, 0, 1.474399, -232.201096, -131.847214)"/>
  <g opacity="0.5" transform="matrix(0.337962, 0, 0, 0.337962, 241.043701, 170.420578)" style="stroke-width: 0.205931; vector-effect: non-scaling-stroke;">
    <rect x="315.47" y="127.64" width="91.73" height="75.35" fill="url(#ced5db71-211d-4559-8944-028d2e60ece5)"/>
  </g>
  <rect x="393.532" y="234.596" width="20.497" height="16.657" fill="#f2f2f2" style="stroke-width: 0.898401; vector-effect: non-scaling-stroke;" transform="matrix(1.474399, 0, 0, 1.474399, -232.201096, -131.847214)"/>
  <rect x="393.532" y="234.596" width="20.497" height="3.716" fill="#673ab6" style="stroke-width: 0.898401; vector-effect: non-scaling-stroke;" transform="matrix(1.474399, 0, 0, 1.474399, -232.201096, -131.847214)"/>
  <rect x="393.532" y="234.596" width="20.497" height="3.716" opacity="0.1" style="stroke-width: 0.898401; vector-effect: non-scaling-stroke;" transform="matrix(1.474399, 0, 0, 1.474399, -232.201096, -131.847214)"/>
  <rect x="395.167" y="239.66" width="17.23" height="2.164" fill="#e0e0e0" style="stroke-width: 0.898401; vector-effect: non-scaling-stroke;" transform="matrix(1.474399, 0, 0, 1.474399, -232.201096, -131.847214)"/>
  <rect x="395.167" y="243.456" width="12.575" height="0.736" fill="#e0e0e0" style="stroke-width: 0.898401; vector-effect: non-scaling-stroke;" transform="matrix(1.474399, 0, 0, 1.474399, -232.201096, -131.847214)"/>
  <rect x="395.167" y="244.721" width="8.165" height="0.736" fill="#e0e0e0" style="stroke-width: 0.898401; vector-effect: non-scaling-stroke;" transform="matrix(1.474399, 0, 0, 1.474399, -232.201096, -131.847214)"/>
  <rect x="395.167" y="245.986" width="10.778" height="0.736" fill="#e0e0e0" style="stroke-width: 0.898401; vector-effect: non-scaling-stroke;" transform="matrix(1.474399, 0, 0, 1.474399, -232.201096, -131.847214)"/>
  <rect x="395.167" y="247.254" width="12.575" height="0.736" fill="#e0e0e0" style="stroke-width: 0.898401; vector-effect: non-scaling-stroke;" transform="matrix(1.474399, 0, 0, 1.474399, -232.201096, -131.847214)"/>
  <rect x="395.167" y="248.519" width="4.206" height="0.736" fill="#e0e0e0" style="stroke-width: 0.898401; vector-effect: non-scaling-stroke;" transform="matrix(1.474399, 0, 0, 1.474399, -232.201096, -131.847214)"/>
  <g opacity="0.5" transform="matrix(0.337962, 0, 0, 0.337962, 241.043701, 170.420578)" style="stroke-width: 0.205931; vector-effect: non-scaling-stroke;">
    <rect x="450.33" y="184.22" width="113.7" height="93.39" fill="url(#4adf524d-df88-48e8-970a-1ad7028c73c0)"/>
  </g>
  <rect x="424.505" y="247.641" width="25.404" height="20.648" fill="#fff" style="stroke-width: 0.898401; vector-effect: non-scaling-stroke;" transform="matrix(1.474399, 0, 0, 1.474399, -232.201096, -131.847214)"/>
  <rect x="424.505" y="247.641" width="25.404" height="4.605" fill="#673ab6" style="stroke-width: 0.898401; vector-effect: non-scaling-stroke;" transform="matrix(1.474399, 0, 0, 1.474399, -232.201096, -131.847214)"/>
  <rect x="426.529" y="253.917" width="21.356" height="2.682" fill="#f5f5f5" style="stroke-width: 0.898401; vector-effect: non-scaling-stroke;" transform="matrix(1.474399, 0, 0, 1.474399, -232.201096, -131.847214)"/>
  <rect x="426.529" y="258.623" width="15.587" height="0.91" fill="#e0e0e0" style="stroke-width: 0.898401; vector-effect: non-scaling-stroke;" transform="matrix(1.474399, 0, 0, 1.474399, -232.201096, -131.847214)"/>
  <rect x="426.529" y="260.193" width="10.122" height="0.91" fill="#e0e0e0" style="stroke-width: 0.898401; vector-effect: non-scaling-stroke;" transform="matrix(1.474399, 0, 0, 1.474399, -232.201096, -131.847214)"/>
  <rect x="426.529" y="261.761" width="13.359" height="0.91" fill="#e0e0e0" style="stroke-width: 0.898401; vector-effect: non-scaling-stroke;" transform="matrix(1.474399, 0, 0, 1.474399, -232.201096, -131.847214)"/>
  <rect x="426.529" y="263.331" width="15.587" height="0.91" fill="#e0e0e0" style="stroke-width: 0.898401; vector-effect: non-scaling-stroke;" transform="matrix(1.474399, 0, 0, 1.474399, -232.201096, -131.847214)"/>
  <rect x="426.529" y="264.899" width="5.212" height="0.91" fill="#e0e0e0" style="stroke-width: 0.898401; vector-effect: non-scaling-stroke;" transform="matrix(1.474399, 0, 0, 1.474399, -232.201096, -131.847214)"/>
  <rect x="427.643" y="254.827" width="6.072" height="0.809" fill="#69f0ae" style="stroke-width: 0.898401; vector-effect: non-scaling-stroke;" transform="matrix(1.474399, 0, 0, 1.474399, -232.201096, -131.847214)"/>
  <polygon points="349.786 327.914 380.611 335.691 405.387 315.525 405.387 303.138 350.361 289.309 349.786 327.914" opacity="0.1" style="stroke-width: 0.898401; vector-effect: non-scaling-stroke;" transform="matrix(1.474399, 0, 0, 1.474399, -232.201096, -131.847214)"/>
  <polygon points="460.99 327.914 430.163 335.691 405.387 315.525 405.387 303.138 460.413 289.309 460.99 327.914" opacity="0.1" style="stroke-width: 0.898401; vector-effect: non-scaling-stroke;" transform="matrix(1.474399, 0, 0, 1.474399, -232.201096, -131.847214)"/>
  <polygon points="350.506 288.3 322.273 311.635 377.296 325.464 405.529 302.993 350.506 288.3" fill="#535461" style="stroke-width: 0.898401; vector-effect: non-scaling-stroke;" transform="matrix(1.474399, 0, 0, 1.474399, -232.201096, -131.847214)"/>
  <polygon points="460.555 288.3 489.077 311.635 434.34 325.464 405.529 302.993 460.555 288.3" fill="#535461" style="stroke-width: 0.898401; vector-effect: non-scaling-stroke;" transform="matrix(1.474399, 0, 0, 1.474399, -232.201096, -131.847214)"/>
  <polygon points="460.555 288.3 489.077 311.635 434.34 325.464 405.529 302.993 460.555 288.3" opacity="0.07" style="stroke-width: 0.898401; vector-effect: non-scaling-stroke;" transform="matrix(1.474399, 0, 0, 1.474399, -232.201096, -131.847214)"/>
</svg>